<svg width="193" height="44" viewBox="0 0 193 44" fill="none" xmlns="http://www.w3.org/2000/svg">
<path fill-rule="evenodd" clip-rule="evenodd" d="M102.894 24.496C103.325 24.496 103.556 24.811 103.556 25.198C103.556 26.018 102.621 27.219 100.279 27.689C100.553 25.742 101.682 24.496 102.894 24.496ZM191.221 24.357C191.065 24.3622 190.915 24.4161 190.791 24.511C188.996 25.874 185.213 28.711 181.586 30.777C181.937 29.919 182.325 29.024 182.634 28.132C183.379 26.066 184.234 24.319 184.234 23.735C184.234 22.957 182.91 22.645 182.166 22.645C181.503 22.645 180.956 22.879 180.688 23.382C179.281 25.991 176.669 29.024 173.43 30.307C174.328 28.443 176.002 25.214 176.55 24.087C176.67 23.85 176.67 23.776 176.67 23.654C176.67 23.034 175.454 22.453 174.328 22.453C173.665 22.453 172.996 22.646 172.688 23.188C172.414 23.643 172.152 24.08 171.909 24.502C170.159 25.892 166.644 28.569 162.894 30.02C162.894 28.852 164.688 27.025 164.688 25.665C164.688 25.159 164.455 24.732 163.751 24.418C163.206 24.186 162.661 23.951 161.959 23.718C162.071 23.368 162.154 23.021 162.154 22.71C162.154 21.66 161.411 20.998 160.007 20.998C158.325 20.998 157.119 22.439 157.119 23.872C157.119 24.462 157.271 25.005 157.704 25.507L157.711 25.517C155.894 26.849 153.163 28.731 150.499 29.633C151.279 27.489 152.373 25.316 153.234 23.486C153.269 23.368 153.309 23.254 153.309 23.136C153.309 22.473 152.176 22.244 151.006 22.244C150.302 22.244 149.797 22.553 149.562 23.021C148.316 25.55 145.197 29.051 142.187 30.178C143.085 28.31 144.762 25.083 145.27 24.033C145.426 23.717 145.426 23.641 145.426 23.523C145.426 22.901 144.214 22.32 143.085 22.32C142.421 22.32 141.76 22.515 141.445 23.063C141.173 23.503 140.928 23.931 140.687 24.345C139.54 25.177 136.267 28.045 132.583 29.633C131.687 30.02 130.635 30.293 129.696 30.293C128.446 30.293 127.471 29.786 127.471 28.31C127.471 25.973 129.111 24.496 130.512 24.496C130.752 24.496 130.867 24.613 130.867 24.811C130.867 25.351 130.086 26.442 130.086 27.067C130.086 27.803 130.752 28.116 131.493 28.116C133.793 28.116 134.221 25.198 134.221 24.653C134.221 23.135 132.781 22.553 130.751 22.553C128.903 22.553 126.737 23.549 125.247 25.039C123.359 26.502 120.226 28.736 116.911 30.019C116.911 28.852 118.705 27.025 118.705 25.665C118.705 25.159 118.473 24.732 117.767 24.418C117.22 24.186 116.676 23.951 115.975 23.718C116.093 23.3946 116.159 23.0542 116.169 22.71C116.169 21.66 115.427 20.998 114.025 20.998C112.346 20.998 111.137 22.439 111.137 23.872C111.137 24.462 111.289 25.005 111.722 25.507L111.793 25.6C110.025 26.93 107.356 28.842 104.728 29.865C103.986 30.135 103.129 30.37 102.308 30.37C101.49 30.37 100.748 30.178 100.396 29.592C103.244 28.968 106.679 27.372 106.679 24.927C106.679 23.41 105.511 22.553 103.474 22.553C102.024 22.553 100.364 23.176 98.994 24.169C97.961 24.801 93.558 28.476 89.567 29.827C91.167 25.973 96.981 14.811 96.981 10.767C96.981 9.33 95.733 8.279 94.598 8.279C92.845 8.279 87.418 14.774 82.856 21.54C85.666 16.486 88.161 11.661 88.161 8.823C88.161 7.421 87.227 5.943 85.744 5.943C83.52 5.943 77.122 12.869 71.814 19.947C74.504 14.54 76.731 9.094 76.731 6.487C76.73 4.855 75.793 4 74.545 4C69.941 4 62.06 8.28 58.353 11.158C58.118 11.354 58 11.582 58 11.818C58 12.361 58.548 12.947 59.134 12.947C59.329 12.947 59.525 12.869 59.719 12.75C64.087 9.794 68.458 7.847 72.204 6.919C71.776 11.582 66.857 22.592 62.138 29.865C62.0579 29.9932 62.0169 30.1419 62.02 30.293C62.02 31.226 63.113 32.741 63.97 32.741C64.206 32.741 64.403 32.667 64.594 32.394C71.306 24.304 78.72 15.434 83.052 10.649C82.738 13.839 78.057 23.291 73.924 30.878C73.882 30.916 73.882 30.993 73.882 31.028C73.882 31.652 75.365 32.823 76.301 32.823C76.611 32.823 76.812 32.667 77.004 32.394C82.934 23.563 88.476 16.835 92.962 12.479C91.207 18.859 85.118 27.956 85.118 30.799C85.118 31.849 85.938 32.624 87.462 32.624C89.094 32.624 92.683 30.675 96.214 28.369C96.202 28.519 96.181 28.664 96.181 28.819C96.181 31.694 97.977 32.823 100.829 32.823C104.469 32.823 108.113 30.593 112.681 27.368C112.999 27.201 113.316 27.006 113.633 26.793C114.103 26.985 114.61 27.143 115.233 27.373C114.803 28.389 113.435 30.099 113.435 31.111C113.435 32.276 113.983 32.823 114.96 32.823C116.639 32.823 120.432 30.706 123.462 28.723C123.462 28.757 123.453 28.788 123.453 28.818C123.453 31.694 125.249 32.823 128.098 32.823C131.398 32.823 134.696 30.963 138.688 28.213C138.202 29.334 137.938 30.219 137.938 30.799C137.938 31.967 138.17 32.823 140.158 32.823C142.071 32.823 144.53 31.577 147.338 28.659C146.83 29.592 146.324 30.719 146.324 31.539C146.324 32.198 146.636 32.667 147.494 32.667C149.822 32.667 153.634 30.657 157.988 27.689C158.557 27.4433 159.1 27.1432 159.611 26.793C160.085 26.985 160.591 27.143 161.216 27.373C160.788 28.389 159.422 30.099 159.422 31.111C159.422 32.276 159.966 32.823 160.944 32.823C162.707 32.823 166.794 30.492 169.892 28.43C169.429 29.514 169.175 30.37 169.175 30.933C169.175 32.098 169.407 32.953 171.4 32.953C173.229 32.953 175.537 31.824 178.19 29.183L176.67 33.496C173.975 36.26 171.011 40.502 171.011 42.832C171.011 43.378 171.751 44 172.257 44C173.975 44 177.211 39.88 179.98 34.274C184.159 31.75 188.448 28.677 191.804 26.225C191.961 26.108 192 25.913 192 25.639C192 25.094 191.689 24.357 191.221 24.357Z" fill="black"/>
<path fill-rule="evenodd" clip-rule="evenodd" d="M52.814 13.426L50.072 11.839C49.449 11.481 49.212 11.245 49.055 11.01C47.222 6.626 43.031 3.323 37.903 2.388C37.903 2.388 37.9 2.388 37.9 2.386C39.548 1.363 40.653 0 40.653 0H0C0 0 2.4 3.226 5.398 3.226H28.996C27.6192 3.7665 26.3276 4.50274 25.161 5.412H4.308C4.308 5.412 6.71 8.652 9.64 8.652H22.119C21.649 9.343 21.24 10.072 20.907 10.837H8.513C8.513 10.837 10.991 14.028 13.992 14.028H19.99C19.91 14.556 19.858 15.091 19.843 15.636C19.763 16.044 19.702 16.136 19.203 16.639L17.637 18.305C17.291 18.675 17.402 18.85 17.887 18.703L19.68 18.148C19.891 18.084 20.051 18.06 20.183 18.061H20.193C20.63 18.069 20.686 18.399 20.777 18.779L21.519 21.547C21.646 22.172 21.796 22.224 21.349 23.063C19.141 27.24 26.913 35.814 30.84 37.886C30.952 38.021 31.76 38.174 32.146 37.459L34.472 33.372C34.813 32.684 35.347 32.579 35.856 32.579C38.156 32.579 41.468 33.659 43.425 32.024C44.847 30.843 45.765 28.13 46.574 26.461C47.129 25.322 49.395 26.009 49.021 24.751L47.356 19.219C47.053 18.268 47.053 18.422 47.52 17.519L48.494 15.671C48.852 14.934 48.043 14.903 48.002 14.811C40.411 12.846 24.047 16.641 23.891 16.561C23.891 16.561 38.126 9.675 52.699 13.778C52.889 13.804 53.204 13.659 52.814 13.426Z" fill="#6CC72B"/>
</svg>
